PathFileType	4	(X/Y/Z)	8_2_21_p1_0-594.trc
DataRate	CameraRate	NumFrames	NumMarkers	Units	OrigDataRate	OrigDataStartFrame	OrigNumFrames
59.0	59.0	7	27	m	59.0	223	595
Frame#	Time	RHip			RKnee			RAnkle			RBigToe			RSmallToe			RHeel			LHip			LKnee			LAnkle			LBigToe			LSmallToe			LHeel			Neck			Head			Nose			RShoulder			RElbow			RWrist			RThumb			RIndex			RPinky			LShoulder			LElbow			LWrist			LThumb			LIndex			LPinky			
		X1	Y1	Z1	X2	Y2	Z2	X3	Y3	Z3	X4	Y4	Z4	X5	Y5	Z5	X6	Y6	Z6	X7	Y7	Z7	X8	Y8	Z8	X9	Y9	Z9	X10	Y10	Z10	X11	Y11	Z11	X12	Y12	Z12	X13	Y13	Z13	X14	Y14	Z14	X15	Y15	Z15	X16	Y16	Z16	X17	Y17	Z17	X18	Y18	Z18	X19	Y19	Z19	X20	Y20	Z20	X21	Y21	Z21	X22	Y22	Z22	X23	Y23	Z23	X24	Y24	Z24	X25	Y25	Z25	X26	Y26	Z26	X27	Y27	Z27	
223	3.7796610169491527	0.27969192676850835	0.6664908785092818	0.8544900458182157	0.23929890643239618	0.6610114801638513	1.3042940912334469	0.2165015432582862	0.9151366174515362	1.7546688610586674	0.20484635894728265	0.6449809105026872	1.7664439921414956	0.2470545847139155	0.6891672854878331	1.7681515216127306	0.21006594310002238	0.9713805207546504	1.8162997337582896	0.07735947454489313	0.702978928451599	0.8581509728000638	0.05443161116854242	0.7081673491058955	1.2854689191539257	0.05061596309803339	0.8598657696120454	1.7359793050506003	0.050699895435227134	0.63129644058914	1.7578946091031158	-0.001291326452534014	0.6853819504677786	1.7478201285555635	0.06734736353772233	0.9805661653255234	1.798830580931444	0.1726807191923826	0.3332205103315567	0.45153622134498345	0.17721435523284534	0.08866250103847723	0.22820147312907987	0.16337399735554434	0.11704541875967821	0.39099245025916735	0.34982498226864767	0.3625833921412682	0.4921608280942294	0.331556568720946	0.4419396307250472	0.7663107817966439	0.23913726459775694	0.24021946563705496	0.9345823866154176	0.21538655816442315	0.04508775803840872	0.9364234428717938	0.22971666425909618	0.03507641217992833	0.940871638830268	0.2253013919228395	0.1380543595181863	0.9863028853349136	0.009990618132385656	0.391834662059233	0.47573538805234794	-0.008172158638874966	0.42990158059054806	0.7308380002177062	-0.011528972586951625	0.24421192337327166	0.9090420239105935	-0.020282798619143498	0.19472924688360643	0.9610220434744724	-0.07178186409927	0.12634884394933468	0.9403484568845831	-0.11858288169521992	0.13261770730100364	0.9497123180957178
224	3.7966101694915255	0.2804156332492328	0.6656059427662409	0.8502958551186935	0.2433516909419561	0.6618559752056183	1.3045051490140043	0.2164855662462162	0.9150976550611871	1.7545821600510498	0.2010613419650022	0.643213153863893	1.7657449073664542	0.24708678041537693	0.6889501689438614	1.7681417900487102	0.20897244579683813	0.9680840756653882	1.810013616997035	0.08581472184954905	0.7177429670066484	0.8552296308230639	0.054515074578390804	0.7081297445987674	1.2854430406719346	0.05059005962130925	0.8597213534374001	1.7358614067955718	0.049919777622434554	0.6284937790553387	1.752465869590477	-0.0012389791022678264	0.6852154673540103	1.7475528936418263	0.06738440449270107	0.9800537015405411	1.7985399239145325	0.1721339285974956	0.33325586490876874	0.45430344187704436	0.18063515905797248	0.09840926846569277	0.2295334464798936	0.166280611639029	0.12589766199647454	0.3933730969126079	0.3497421304837231	0.3622447515872862	0.4955746559416538	0.32776571205404675	0.44116852990750494	0.7696072687362371	0.23161170540245402	0.2500964574821393	0.9330893824508986	0.20609022455707082	0.0594667321711246	0.9342198476567016	0.21709309334508983	0.046139923040305016	0.9412470799178149	0.21526650187155552	0.15144398202530265	0.9902748720432933	0.013937771524987853	0.3933366573284323	0.47577613811641206	-0.005548842990035482	0.44182197628841247	0.7313945981647004	-0.016725396299803637	0.25559182906985656	0.9170975813246128	-0.020836270027444388	0.19268149143358448	0.9582146409775164	-0.0717806815055499	0.12598684341243066	0.940304388397006	-0.11295825097384211	0.1367999759699325	0.9592235331894796
225	3.8135593220338984	0.28055897273578134	0.6654699933210388	0.8542910858310958	0.23509065824067346	0.646581629256493	1.3009485756874208	0.21759792388759489	0.91378790157255	1.74940264509339	0.19713543536824513	0.6301092344620132	1.7608135197388906	0.23871626135072954	0.6921479729486398	1.7692246074247993	0.21128878200801088	0.9696721515577837	1.8112462144352324	0.08573068318396172	0.7183388331806753	0.8554914990318628	0.054519064521887844	0.7082212430992878	1.2854508066808097	0.05062850475834186	0.8596820196328306	1.7356308228960615	0.04963483893707067	0.6279684350355373	1.7522876794336573	-0.001195795609949133	0.6856024307818799	1.7478137667479332	0.06760746850520154	0.9812012309280961	1.79932127177801	0.17234148500158675	0.33307341238576765	0.4576414435174491	0.17432905325560402	0.08945053053922584	0.23437197006070895	0.16364110428207657	0.11835231176582031	0.397059261750082	0.3496042196677593	0.36196074562814357	0.49559902415229395	0.3239043158085528	0.4545389250723812	0.7704972978178795	0.22075765581672077	0.2654147541473662	0.9343956077465876	0.18904383657527615	0.08371118454851871	0.9408850129776312	0.19228007603228076	0.07892576088564245	0.9565826558188673	0.2078696517796787	0.15947652740721122	0.9953946185246778	0.013983804034891056	0.39310186945880066	0.4759437077451632	-0.008222211154057092	0.4299438479711118	0.7307664765070527	-0.016139893186717297	0.2574792067953771	0.9208424064891803	-0.021090819075276903	0.19372863018016398	0.9607906065734226	-0.07242061424157438	0.12680623868606816	0.943340158948701	-0.1126208452735733	0.13758757795448634	0.9604119464366603
226	3.830508474576271	0.2799274584886398	0.6671644902289969	0.8542930103149945	0.23413123642765826	0.6569983695948227	1.299014311010185	0.21355524539802698	0.8985494404895349	1.7435044858861646	0.19256662896879922	0.6149831163393644	1.7512888627815044	0.23840861259305876	0.6940833613651907	1.7658814715753777	0.21135902644916502	0.9696456949420675	1.8110821876732304	0.08076721548501621	0.7179616938720335	0.8592208846242226	0.054773277593426595	0.7077335850778997	1.2891831420978832	0.053987546571736135	0.8769076529669676	1.7373768716604803	0.05517822284501492	0.627941844301679	1.7524023085568081	-0.004271934036016732	0.7129584677747698	1.753693357023392	0.06796334270914238	0.9828490885270325	1.8002980684672478	0.17649428273330345	0.32241833921428203	0.4588795325576585	0.17738588588839846	0.09056563532259215	0.23440219772129903	0.16663362692130199	0.1286486608859415	0.39935038339512635	0.349405166057341	0.3614755582979143	0.49557818365746725	0.3236080428101465	0.45432661850670897	0.7705588562237861	0.21717100991340194	0.2778360005354767	0.9401036471383412	0.18543863377851438	0.08224350357767903	0.9440334745852206	0.1842954141825205	0.07898693327011368	0.9622834067181665	0.19899812591731786	0.1716580128519465	0.9997540173782995	0.018630265717809062	0.3811327314156665	0.4765443353427275	-0.008696427756122104	0.42842554376494035	0.7235887549684439	-0.016091466407579726	0.25805593882405203	0.9210160060425888	-0.01870708511888034	0.2035710719161706	0.9649004799699177	-0.06845740384837581	0.14712981854393314	0.9464220589852093	-0.10917917315634297	0.13719669973455126	0.9567472758127714
227	3.847457627118644	0.2759222749758524	0.667525751372867	0.8624562111196832	0.2309943221388516	0.645607279302736	1.300529961972602	0.21750470988442727	0.9138180199679521	1.748722212457792	0.19733139067052866	0.6303280185190339	1.7607929160782116	0.24279198608224753	0.7055676740679668	1.7739822881007814	0.2102697005149468	0.9663050859366197	1.8046261007530815	0.07776406841344756	0.7181819771139379	0.8601727808578865	0.053940491392776305	0.7047181625489403	1.2839533746700542	0.05453527904410623	0.8638282553294212	1.7330467764458464	0.053981863150258075	0.6399543401920468	1.7569151169073793	0.001033782057932029	0.6971722381943157	1.747666422993282	0.06781012630527661	0.982188123078387	1.7997987409007787	0.17647644197040602	0.3221721808139626	0.4587793832707389	0.1773720657147337	0.09049682064398806	0.23423636308848697	0.1638174748331781	0.11985047587322684	0.400120490323418	0.3490324555004154	0.3485313744228035	0.49605419650246285	0.3196280087187171	0.4531772905819931	0.7707040549808921	0.21379392312698062	0.25533311720037977	0.9405366151842605	0.1715915950460082	0.10983615619387188	0.9495176351716721	0.17487388589854827	0.0702962185052885	0.9609404969527796	0.19052083049862895	0.19202614127469594	0.9992100501650527	0.010187590600807902	0.3913436249805934	0.4761549400764825	-0.012170837979791462	0.4283098262218562	0.7307524101672541	-0.015951152583580396	0.2571779094978655	0.9243486411511177	-0.026489098876436877	0.19066373871787418	0.9669497981743829	-0.07059678558661842	0.1370337177107522	0.9453503771603152	-0.11733784493857027	0.14847193565182906	0.9628350959550505
228	3.864406779661017	0.2800641062829773	0.6681916131183688	0.8628381542092471	0.23084790807607386	0.6453824226203418	1.3006957835357236	0.21337327179334067	0.8992755749577579	1.7390948021423007	0.20118191892222323	0.6326996237763859	1.7580246833533533	0.2470136206196228	0.7080210989803879	1.7715032692010473	0.2144253067423796	0.9670956173888249	1.8047213535220372	0.07716175121481592	0.7193592718029548	0.8644404750676998	0.05535532476761523	0.7104817075801934	1.2947083176209198	0.054474074034584506	0.864232117590892	1.7287851915840573	0.05591902012926046	0.6320318801398228	1.753925865794145	-0.0024070805576572735	0.7036782733899976	1.7544122377387183	0.06742015035638856	0.9822224522635742	1.7952918270020453	0.17250255536309367	0.3333260643059552	0.45828708061925755	0.17752631709004246	0.0903053828416539	0.2341297557157675	0.16662769007887568	0.12879539847650423	0.39952427880131647	0.34539394375395766	0.36073574240880285	0.495594633092779	0.3152023097312287	0.44174727082901366	0.766264736499087	0.207688623921106	0.2583942425716976	0.9440950839199298	0.16840759449679604	0.09924203644292108	0.9483384651124478	0.16826325524714955	0.05750060363213364	0.9530627109104173	0.1758806666609143	0.2046091858957305	1.0016972997813385	0.010223475562016526	0.3914467948989706	0.4760390773948161	-0.0055717297867539355	0.44208549912334966	0.7314754912292808	-0.01847285634823187	0.24615405438153531	0.9266539654818128	-0.03140233844770442	0.1872314420302719	0.9664733715566777	-0.07422256583167643	0.13719377320151258	0.948420258752339	-0.11743803272936297	0.14942513304389257	0.9697979495216936
229	3.8813559322033897	0.27577113261033537	0.6671481439818934	0.8627426282875269	0.23011736376826264	0.6431752870480467	1.296112530142918	0.2120716776280652	0.9007641746171451	1.7442164755050351	0.20129661765230206	0.6321214111297603	1.7578485165199538	0.2514323979994711	0.6909713437087736	1.7654209324803076	0.21017091246604583	0.966324799034929	1.8046679216255939	0.07848516146362824	0.7211490377123743	0.8652583646572712	0.05132518301768029	0.708671643413341	1.294539681510484	0.054274225806410156	0.8641177113775697	1.7289487335862097	0.055229178627254204	0.6285516445860772	1.7484076278222036	0.0027859350611670435	0.6885062051459756	1.744589195432521	0.06726164450993416	0.9821425616812719	1.7953464293517465	0.17244502240231832	0.3333109713349629	0.4583742625207014	0.1745574729707026	0.09042210114255615	0.23771532032674808	0.16665696612485328	0.128709848389817	0.39962738743010834	0.3452800514283222	0.36077915828111556	0.49563051225865207	0.3076895382538743	0.4427491273958452	0.7700273171685577	0.20351209403476214	0.27214869350897697	0.9454924332964589	0.18140285673609427	0.038544067187584984	0.9417751047802296	0.17143361534213936	0.045844377415258965	0.9581493555567816	0.19103491725343325	0.14965675528461064	0.9929466614990067	0.01014615755901507	0.3916682297793392	0.4759954938594796	-0.00553450034644242	0.44203318856798657	0.7314454961783419	-0.01922581021094193	0.2462623549309936	0.9340678911671143	-0.028168214677766833	0.18932809543564172	0.9669158918660852	-0.0703429986734244	0.13852676469777989	0.9487119044051208	-0.11328650509665564	0.1500069912178603	0.9705576415556229
